# xmcd
#
# Track frame offsets: 
#        150
#        12995
#        22975
#        32125
#        47332
#        58722
#        69272
#        79905
#
# Disc length: 1253 seconds
#
# Revision: 2
# Processed by: cddbd v1.5.2PL0 Copyright (c) Steve Scherf et al.
# Submitted via: ExactAudioCopy v0.90a11
#
DISCID=5904e308
DTITLE=Charley Pride - The Best Of Charley Pride Vol. II
DYEAR=1995
DGENRE=Country
TTITLE0=A Place For The Lonesome
TTITLE1=Is Anybody Goin' To San Antone
TTITLE2=Kiss An Angel Good Mornin'
TTITLE3=Let Me Live
TTITLE4=(There's Still) Someone I Can't Forget
TTITLE5=I'm Just Me
TTITLE6=(In My World) You Don't Belong
TTITLE7=I'm So Afraid Of Losing You Again
EXTD=
EXTT0=
EXTT1=
EXTT2=
EXTT3=
EXTT4=
EXTT5=
EXTT6=
EXTT7=
PLAYORDER=
